<?xml version="1.0" encoding="UTF-8"?>
<svg xmlns="http://www.w3.org/2000/svg" version="1.1" viewBox="0 0 43 43" stroke="none">
<path d="M1,1h1v1h-1zM2,1h1v1h-1zM3,1h1v1h-1zM4,1h1v1h-1zM5,1h1v1h-1zM6,1h1v1h-1zM7,1h1v1h-1zM11,1h1v1h-1zM12,1h1v1h-1zM13,1h1v1h-1zM16,1h1v1h-1zM19,1h1v1h-1zM20,1h1v1h-1zM24,1h1v1h-1zM25,1h1v1h-1zM27,1h1v1h-1zM28,1h1v1h-1zM31,1h1v1h-1zM32,1h1v1h-1zM33,1h1v1h-1zM35,1h1v1h-1zM36,1h1v1h-1zM37,1h1v1h-1zM38,1h1v1h-1zM39,1h1v1h-1zM40,1h1v1h-1zM41,1h1v1h-1zM1,2h1v1h-1zM7,2h1v1h-1zM10,2h1v1h-1zM11,2h1v1h-1zM12,2h1v1h-1zM13,2h1v1h-1zM19,2h1v1h-1zM21,2h1v1h-1zM23,2h1v1h-1zM25,2h1v1h-1zM28,2h1v1h-1zM29,2h1v1h-1zM30,2h1v1h-1zM33,2h1v1h-1zM35,2h1v1h-1zM41,2h1v1h-1zM1,3h1v1h-1zM3,3h1v1h-1zM4,3h1v1h-1zM5,3h1v1h-1zM7,3h1v1h-1zM9,3h1v1h-1zM13,3h1v1h-1zM15,3h1v1h-1zM16,3h1v1h-1zM17,3h1v1h-1zM20,3h1v1h-1zM21,3h1v1h-1zM29,3h1v1h-1zM31,3h1v1h-1zM33,3h1v1h-1zM35,3h1v1h-1zM37,3h1v1h-1zM38,3h1v1h-1zM39,3h1v1h-1zM41,3h1v1h-1zM1,4h1v1h-1zM3,4h1v1h-1zM4,4h1v1h-1zM5,4h1v1h-1zM7,4h1v1h-1zM9,4h1v1h-1zM11,4h1v1h-1zM12,4h1v1h-1zM13,4h1v1h-1zM14,4h1v1h-1zM15,4h1v1h-1zM16,4h1v1h-1zM17,4h1v1h-1zM19,4h1v1h-1zM21,4h1v1h-1zM22,4h1v1h-1zM23,4h1v1h-1zM25,4h1v1h-1zM28,4h1v1h-1zM35,4h1v1h-1zM37,4h1v1h-1zM38,4h1v1h-1zM39,4h1v1h-1zM41,4h1v1h-1zM1,5h1v1h-1zM3,5h1v1h-1zM4,5h1v1h-1zM5,5h1v1h-1zM7,5h1v1h-1zM9,5h1v1h-1zM12,5h1v1h-1zM14,5h1v1h-1zM17,5h1v1h-1zM21,5h1v1h-1zM22,5h1v1h-1zM24,5h1v1h-1zM28,5h1v1h-1zM32,5h1v1h-1zM35,5h1v1h-1zM37,5h1v1h-1zM38,5h1v1h-1zM39,5h1v1h-1zM41,5h1v1h-1zM1,6h1v1h-1zM7,6h1v1h-1zM9,6h1v1h-1zM12,6h1v1h-1zM13,6h1v1h-1zM15,6h1v1h-1zM18,6h1v1h-1zM20,6h1v1h-1zM21,6h1v1h-1zM23,6h1v1h-1zM25,6h1v1h-1zM26,6h1v1h-1zM27,6h1v1h-1zM29,6h1v1h-1zM30,6h1v1h-1zM31,6h1v1h-1zM32,6h1v1h-1zM33,6h1v1h-1zM35,6h1v1h-1zM41,6h1v1h-1zM1,7h1v1h-1zM2,7h1v1h-1zM3,7h1v1h-1zM4,7h1v1h-1zM5,7h1v1h-1zM6,7h1v1h-1zM7,7h1v1h-1zM9,7h1v1h-1zM11,7h1v1h-1zM13,7h1v1h-1zM15,7h1v1h-1zM17,7h1v1h-1zM19,7h1v1h-1zM21,7h1v1h-1zM23,7h1v1h-1zM25,7h1v1h-1zM27,7h1v1h-1zM29,7h1v1h-1zM31,7h1v1h-1zM33,7h1v1h-1zM35,7h1v1h-1zM36,7h1v1h-1zM37,7h1v1h-1zM38,7h1v1h-1zM39,7h1v1h-1zM40,7h1v1h-1zM41,7h1v1h-1zM9,8h1v1h-1zM10,8h1v1h-1zM12,8h1v1h-1zM13,8h1v1h-1zM14,8h1v1h-1zM18,8h1v1h-1zM19,8h1v1h-1zM20,8h1v1h-1zM22,8h1v1h-1zM24,8h1v1h-1zM25,8h1v1h-1zM26,8h1v1h-1zM27,8h1v1h-1zM29,8h1v1h-1zM30,8h1v1h-1zM31,8h1v1h-1zM32,8h1v1h-1zM33,8h1v1h-1zM1,9h1v1h-1zM3,9h1v1h-1zM4,9h1v1h-1zM5,9h1v1h-1zM6,9h1v1h-1zM7,9h1v1h-1zM11,9h1v1h-1zM13,9h1v1h-1zM14,9h1v1h-1zM16,9h1v1h-1zM17,9h1v1h-1zM21,9h1v1h-1zM28,9h1v1h-1zM30,9h1v1h-1zM33,9h1v1h-1zM35,9h1v1h-1zM36,9h1v1h-1zM37,9h1v1h-1zM38,9h1v1h-1zM39,9h1v1h-1zM1,10h1v1h-1zM2,10h1v1h-1zM3,10h1v1h-1zM8,10h1v1h-1zM9,10h1v1h-1zM10,10h1v1h-1zM14,10h1v1h-1zM17,10h1v1h-1zM20,10h1v1h-1zM21,10h1v1h-1zM22,10h1v1h-1zM27,10h1v1h-1zM29,10h1v1h-1zM32,10h1v1h-1zM33,10h1v1h-1zM34,10h1v1h-1zM38,10h1v1h-1zM41,10h1v1h-1zM2,11h1v1h-1zM5,11h1v1h-1zM6,11h1v1h-1zM7,11h1v1h-1zM8,11h1v1h-1zM11,11h1v1h-1zM12,11h1v1h-1zM15,11h1v1h-1zM20,11h1v1h-1zM23,11h1v1h-1zM26,11h1v1h-1zM27,11h1v1h-1zM30,11h1v1h-1zM32,11h1v1h-1zM34,11h1v1h-1zM38,11h1v1h-1zM1,12h1v1h-1zM2,12h1v1h-1zM6,12h1v1h-1zM8,12h1v1h-1zM11,12h1v1h-1zM12,12h1v1h-1zM20,12h1v1h-1zM21,12h1v1h-1zM24,12h1v1h-1zM26,12h1v1h-1zM31,12h1v1h-1zM32,12h1v1h-1zM34,12h1v1h-1zM35,12h1v1h-1zM36,12h1v1h-1zM37,12h1v1h-1zM38,12h1v1h-1zM39,12h1v1h-1zM41,12h1v1h-1zM1,13h1v1h-1zM2,13h1v1h-1zM5,13h1v1h-1zM6,13h1v1h-1zM7,13h1v1h-1zM8,13h1v1h-1zM9,13h1v1h-1zM12,13h1v1h-1zM13,13h1v1h-1zM15,13h1v1h-1zM19,13h1v1h-1zM22,13h1v1h-1zM23,13h1v1h-1zM28,13h1v1h-1zM29,13h1v1h-1zM30,13h1v1h-1zM31,13h1v1h-1zM36,13h1v1h-1zM1,14h1v1h-1zM2,14h1v1h-1zM4,14h1v1h-1zM6,14h1v1h-1zM12,14h1v1h-1zM14,14h1v1h-1zM16,14h1v1h-1zM17,14h1v1h-1zM19,14h1v1h-1zM21,14h1v1h-1zM22,14h1v1h-1zM25,14h1v1h-1zM28,14h1v1h-1zM31,14h1v1h-1zM33,14h1v1h-1zM34,14h1v1h-1zM35,14h1v1h-1zM36,14h1v1h-1zM38,14h1v1h-1zM41,14h1v1h-1zM1,15h1v1h-1zM2,15h1v1h-1zM4,15h1v1h-1zM7,15h1v1h-1zM8,15h1v1h-1zM9,15h1v1h-1zM12,15h1v1h-1zM17,15h1v1h-1zM20,15h1v1h-1zM23,15h1v1h-1zM27,15h1v1h-1zM28,15h1v1h-1zM29,15h1v1h-1zM30,15h1v1h-1zM36,15h1v1h-1zM38,15h1v1h-1zM39,15h1v1h-1zM1,16h1v1h-1zM4,16h1v1h-1zM6,16h1v1h-1zM8,16h1v1h-1zM10,16h1v1h-1zM11,16h1v1h-1zM13,16h1v1h-1zM15,16h1v1h-1zM18,16h1v1h-1zM20,16h1v1h-1zM21,16h1v1h-1zM22,16h1v1h-1zM23,16h1v1h-1zM25,16h1v1h-1zM27,16h1v1h-1zM30,16h1v1h-1zM31,16h1v1h-1zM32,16h1v1h-1zM33,16h1v1h-1zM35,16h1v1h-1zM37,16h1v1h-1zM38,16h1v1h-1zM41,16h1v1h-1zM2,17h1v1h-1zM5,17h1v1h-1zM6,17h1v1h-1zM7,17h1v1h-1zM8,17h1v1h-1zM10,17h1v1h-1zM11,17h1v1h-1zM12,17h1v1h-1zM13,17h1v1h-1zM14,17h1v1h-1zM15,17h1v1h-1zM17,17h1v1h-1zM18,17h1v1h-1zM20,17h1v1h-1zM21,17h1v1h-1zM23,17h1v1h-1zM25,17h1v1h-1zM28,17h1v1h-1zM29,17h1v1h-1zM30,17h1v1h-1zM31,17h1v1h-1zM33,17h1v1h-1zM34,17h1v1h-1zM37,17h1v1h-1zM3,18h1v1h-1zM4,18h1v1h-1zM5,18h1v1h-1zM9,18h1v1h-1zM11,18h1v1h-1zM12,18h1v1h-1zM13,18h1v1h-1zM14,18h1v1h-1zM17,18h1v1h-1zM18,18h1v1h-1zM21,18h1v1h-1zM22,18h1v1h-1zM26,18h1v1h-1zM27,18h1v1h-1zM28,18h1v1h-1zM34,18h1v1h-1zM36,18h1v1h-1zM37,18h1v1h-1zM2,19h1v1h-1zM4,19h1v1h-1zM7,19h1v1h-1zM11,19h1v1h-1zM12,19h1v1h-1zM14,19h1v1h-1zM15,19h1v1h-1zM17,19h1v1h-1zM18,19h1v1h-1zM20,19h1v1h-1zM22,19h1v1h-1zM24,19h1v1h-1zM25,19h1v1h-1zM26,19h1v1h-1zM27,19h1v1h-1zM28,19h1v1h-1zM29,19h1v1h-1zM30,19h1v1h-1zM36,19h1v1h-1zM38,19h1v1h-1zM39,19h1v1h-1zM40,19h1v1h-1zM2,20h1v1h-1zM3,20h1v1h-1zM4,20h1v1h-1zM6,20h1v1h-1zM8,20h1v1h-1zM10,20h1v1h-1zM12,20h1v1h-1zM14,20h1v1h-1zM18,20h1v1h-1zM19,20h1v1h-1zM20,20h1v1h-1zM21,20h1v1h-1zM22,20h1v1h-1zM23,20h1v1h-1zM24,20h1v1h-1zM26,20h1v1h-1zM30,20h1v1h-1zM32,20h1v1h-1zM33,20h1v1h-1zM35,20h1v1h-1zM36,20h1v1h-1zM37,20h1v1h-1zM38,20h1v1h-1zM40,20h1v1h-1zM41,20h1v1h-1zM1,21h1v1h-1zM2,21h1v1h-1zM4,21h1v1h-1zM5,21h1v1h-1zM7,21h1v1h-1zM8,21h1v1h-1zM9,21h1v1h-1zM11,21h1v1h-1zM12,21h1v1h-1zM15,21h1v1h-1zM22,21h1v1h-1zM27,21h1v1h-1zM28,21h1v1h-1zM29,21h1v1h-1zM31,21h1v1h-1zM33,21h1v1h-1zM37,21h1v1h-1zM39,21h1v1h-1zM1,22h1v1h-1zM3,22h1v1h-1zM4,22h1v1h-1zM6,22h1v1h-1zM9,22h1v1h-1zM11,22h1v1h-1zM19,22h1v1h-1zM21,22h1v1h-1zM22,22h1v1h-1zM23,22h1v1h-1zM25,22h1v1h-1zM28,22h1v1h-1zM29,22h1v1h-1zM31,22h1v1h-1zM32,22h1v1h-1zM33,22h1v1h-1zM34,22h1v1h-1zM35,22h1v1h-1zM38,22h1v1h-1zM40,22h1v1h-1zM1,23h1v1h-1zM2,23h1v1h-1zM3,23h1v1h-1zM4,23h1v1h-1zM5,23h1v1h-1zM6,23h1v1h-1zM7,23h1v1h-1zM11,23h1v1h-1zM12,23h1v1h-1zM15,23h1v1h-1zM18,23h1v1h-1zM19,23h1v1h-1zM21,23h1v1h-1zM23,23h1v1h-1zM25,23h1v1h-1zM26,23h1v1h-1zM27,23h1v1h-1zM28,23h1v1h-1zM30,23h1v1h-1zM33,23h1v1h-1zM36,23h1v1h-1zM38,23h1v1h-1zM39,23h1v1h-1zM1,24h1v1h-1zM3,24h1v1h-1zM6,24h1v1h-1zM8,24h1v1h-1zM12,24h1v1h-1zM17,24h1v1h-1zM18,24h1v1h-1zM19,24h1v1h-1zM20,24h1v1h-1zM21,24h1v1h-1zM22,24h1v1h-1zM26,24h1v1h-1zM29,24h1v1h-1zM32,24h1v1h-1zM33,24h1v1h-1zM34,24h1v1h-1zM37,24h1v1h-1zM40,24h1v1h-1zM41,24h1v1h-1zM4,25h1v1h-1zM5,25h1v1h-1zM7,25h1v1h-1zM8,25h1v1h-1zM9,25h1v1h-1zM10,25h1v1h-1zM13,25h1v1h-1zM16,25h1v1h-1zM17,25h1v1h-1zM18,25h1v1h-1zM21,25h1v1h-1zM22,25h1v1h-1zM23,25h1v1h-1zM25,25h1v1h-1zM26,25h1v1h-1zM27,25h1v1h-1zM28,25h1v1h-1zM29,25h1v1h-1zM30,25h1v1h-1zM34,25h1v1h-1zM35,25h1v1h-1zM37,25h1v1h-1zM38,25h1v1h-1zM40,25h1v1h-1zM41,25h1v1h-1zM2,26h1v1h-1zM3,26h1v1h-1zM4,26h1v1h-1zM5,26h1v1h-1zM12,26h1v1h-1zM14,26h1v1h-1zM16,26h1v1h-1zM17,26h1v1h-1zM20,26h1v1h-1zM22,26h1v1h-1zM23,26h1v1h-1zM27,26h1v1h-1zM29,26h1v1h-1zM32,26h1v1h-1zM34,26h1v1h-1zM35,26h1v1h-1zM36,26h1v1h-1zM38,26h1v1h-1zM41,26h1v1h-1zM1,27h1v1h-1zM3,27h1v1h-1zM5,27h1v1h-1zM7,27h1v1h-1zM10,27h1v1h-1zM11,27h1v1h-1zM12,27h1v1h-1zM13,27h1v1h-1zM14,27h1v1h-1zM15,27h1v1h-1zM17,27h1v1h-1zM23,27h1v1h-1zM27,27h1v1h-1zM28,27h1v1h-1zM29,27h1v1h-1zM32,27h1v1h-1zM33,27h1v1h-1zM37,27h1v1h-1zM39,27h1v1h-1zM41,27h1v1h-1zM3,28h1v1h-1zM4,28h1v1h-1zM5,28h1v1h-1zM8,28h1v1h-1zM11,28h1v1h-1zM13,28h1v1h-1zM15,28h1v1h-1zM17,28h1v1h-1zM18,28h1v1h-1zM19,28h1v1h-1zM20,28h1v1h-1zM21,28h1v1h-1zM24,28h1v1h-1zM27,28h1v1h-1zM29,28h1v1h-1zM32,28h1v1h-1zM34,28h1v1h-1zM35,28h1v1h-1zM36,28h1v1h-1zM37,28h1v1h-1zM39,28h1v1h-1zM40,28h1v1h-1zM1,29h1v1h-1zM2,29h1v1h-1zM3,29h1v1h-1zM6,29h1v1h-1zM7,29h1v1h-1zM9,29h1v1h-1zM10,29h1v1h-1zM12,29h1v1h-1zM21,29h1v1h-1zM22,29h1v1h-1zM25,29h1v1h-1zM26,29h1v1h-1zM27,29h1v1h-1zM28,29h1v1h-1zM34,29h1v1h-1zM35,29h1v1h-1zM37,29h1v1h-1zM1,30h1v1h-1zM5,30h1v1h-1zM6,30h1v1h-1zM11,30h1v1h-1zM13,30h1v1h-1zM15,30h1v1h-1zM16,30h1v1h-1zM19,30h1v1h-1zM22,30h1v1h-1zM23,30h1v1h-1zM27,30h1v1h-1zM31,30h1v1h-1zM32,30h1v1h-1zM33,30h1v1h-1zM38,30h1v1h-1zM40,30h1v1h-1zM1,31h1v1h-1zM4,31h1v1h-1zM5,31h1v1h-1zM7,31h1v1h-1zM8,31h1v1h-1zM9,31h1v1h-1zM11,31h1v1h-1zM12,31h1v1h-1zM14,31h1v1h-1zM15,31h1v1h-1zM16,31h1v1h-1zM17,31h1v1h-1zM18,31h1v1h-1zM21,31h1v1h-1zM23,31h1v1h-1zM24,31h1v1h-1zM25,31h1v1h-1zM27,31h1v1h-1zM28,31h1v1h-1zM29,31h1v1h-1zM30,31h1v1h-1zM32,31h1v1h-1zM39,31h1v1h-1zM40,31h1v1h-1zM41,31h1v1h-1zM1,32h1v1h-1zM4,32h1v1h-1zM5,32h1v1h-1zM6,32h1v1h-1zM9,32h1v1h-1zM10,32h1v1h-1zM12,32h1v1h-1zM13,32h1v1h-1zM15,32h1v1h-1zM18,32h1v1h-1zM19,32h1v1h-1zM23,32h1v1h-1zM24,32h1v1h-1zM26,32h1v1h-1zM30,32h1v1h-1zM31,32h1v1h-1zM32,32h1v1h-1zM33,32h1v1h-1zM35,32h1v1h-1zM36,32h1v1h-1zM37,32h1v1h-1zM41,32h1v1h-1zM1,33h1v1h-1zM7,33h1v1h-1zM9,33h1v1h-1zM11,33h1v1h-1zM15,33h1v1h-1zM18,33h1v1h-1zM21,33h1v1h-1zM22,33h1v1h-1zM24,33h1v1h-1zM25,33h1v1h-1zM28,33h1v1h-1zM29,33h1v1h-1zM33,33h1v1h-1zM34,33h1v1h-1zM35,33h1v1h-1zM36,33h1v1h-1zM37,33h1v1h-1zM38,33h1v1h-1zM39,33h1v1h-1zM40,33h1v1h-1zM9,34h1v1h-1zM11,34h1v1h-1zM15,34h1v1h-1zM17,34h1v1h-1zM19,34h1v1h-1zM24,34h1v1h-1zM27,34h1v1h-1zM31,34h1v1h-1zM33,34h1v1h-1zM37,34h1v1h-1zM38,34h1v1h-1zM41,34h1v1h-1zM1,35h1v1h-1zM2,35h1v1h-1zM3,35h1v1h-1zM4,35h1v1h-1zM5,35h1v1h-1zM6,35h1v1h-1zM7,35h1v1h-1zM11,35h1v1h-1zM19,35h1v1h-1zM20,35h1v1h-1zM21,35h1v1h-1zM23,35h1v1h-1zM28,35h1v1h-1zM30,35h1v1h-1zM31,35h1v1h-1zM32,35h1v1h-1zM33,35h1v1h-1zM35,35h1v1h-1zM37,35h1v1h-1zM38,35h1v1h-1zM1,36h1v1h-1zM7,36h1v1h-1zM9,36h1v1h-1zM13,36h1v1h-1zM17,36h1v1h-1zM21,36h1v1h-1zM24,36h1v1h-1zM25,36h1v1h-1zM27,36h1v1h-1zM29,36h1v1h-1zM30,36h1v1h-1zM33,36h1v1h-1zM37,36h1v1h-1zM41,36h1v1h-1zM1,37h1v1h-1zM3,37h1v1h-1zM4,37h1v1h-1zM5,37h1v1h-1zM7,37h1v1h-1zM9,37h1v1h-1zM11,37h1v1h-1zM12,37h1v1h-1zM19,37h1v1h-1zM21,37h1v1h-1zM22,37h1v1h-1zM23,37h1v1h-1zM28,37h1v1h-1zM29,37h1v1h-1zM33,37h1v1h-1zM34,37h1v1h-1zM35,37h1v1h-1zM36,37h1v1h-1zM37,37h1v1h-1zM1,38h1v1h-1zM3,38h1v1h-1zM4,38h1v1h-1zM5,38h1v1h-1zM7,38h1v1h-1zM9,38h1v1h-1zM11,38h1v1h-1zM12,38h1v1h-1zM14,38h1v1h-1zM15,38h1v1h-1zM17,38h1v1h-1zM20,38h1v1h-1zM22,38h1v1h-1zM24,38h1v1h-1zM27,38h1v1h-1zM28,38h1v1h-1zM29,38h1v1h-1zM32,38h1v1h-1zM33,38h1v1h-1zM34,38h1v1h-1zM37,38h1v1h-1zM38,38h1v1h-1zM1,39h1v1h-1zM3,39h1v1h-1zM4,39h1v1h-1zM5,39h1v1h-1zM7,39h1v1h-1zM9,39h1v1h-1zM10,39h1v1h-1zM13,39h1v1h-1zM15,39h1v1h-1zM16,39h1v1h-1zM21,39h1v1h-1zM25,39h1v1h-1zM26,39h1v1h-1zM27,39h1v1h-1zM30,39h1v1h-1zM35,39h1v1h-1zM36,39h1v1h-1zM37,39h1v1h-1zM39,39h1v1h-1zM40,39h1v1h-1zM1,40h1v1h-1zM7,40h1v1h-1zM10,40h1v1h-1zM11,40h1v1h-1zM12,40h1v1h-1zM13,40h1v1h-1zM14,40h1v1h-1zM15,40h1v1h-1zM17,40h1v1h-1zM19,40h1v1h-1zM20,40h1v1h-1zM21,40h1v1h-1zM24,40h1v1h-1zM27,40h1v1h-1zM29,40h1v1h-1zM32,40h1v1h-1zM34,40h1v1h-1zM36,40h1v1h-1zM38,40h1v1h-1zM39,40h1v1h-1zM41,40h1v1h-1zM1,41h1v1h-1zM2,41h1v1h-1zM3,41h1v1h-1zM4,41h1v1h-1zM5,41h1v1h-1zM6,41h1v1h-1zM7,41h1v1h-1zM9,41h1v1h-1zM11,41h1v1h-1zM12,41h1v1h-1zM19,41h1v1h-1zM23,41h1v1h-1zM27,41h1v1h-1zM28,41h1v1h-1zM29,41h1v1h-1zM30,41h1v1h-1zM32,41h1v1h-1zM33,41h1v1h-1zM35,41h1v1h-1zM36,41h1v1h-1zM37,41h1v1h-1zM38,41h1v1h-1z"/>
</svg>