<?xml version="1.0" encoding="UTF-8"?>
<svg xmlns="http://www.w3.org/2000/svg" version="1.1" viewBox="0 0 39 39" stroke="none">
<path d="M1,1h1v1h-1zM2,1h1v1h-1zM3,1h1v1h-1zM4,1h1v1h-1zM5,1h1v1h-1zM6,1h1v1h-1zM7,1h1v1h-1zM9,1h1v1h-1zM12,1h1v1h-1zM13,1h1v1h-1zM14,1h1v1h-1zM16,1h1v1h-1zM17,1h1v1h-1zM18,1h1v1h-1zM20,1h1v1h-1zM21,1h1v1h-1zM22,1h1v1h-1zM24,1h1v1h-1zM26,1h1v1h-1zM27,1h1v1h-1zM31,1h1v1h-1zM32,1h1v1h-1zM33,1h1v1h-1zM34,1h1v1h-1zM35,1h1v1h-1zM36,1h1v1h-1zM37,1h1v1h-1zM1,2h1v1h-1zM7,2h1v1h-1zM10,2h1v1h-1zM11,2h1v1h-1zM16,2h1v1h-1zM20,2h1v1h-1zM23,2h1v1h-1zM24,2h1v1h-1zM27,2h1v1h-1zM29,2h1v1h-1zM31,2h1v1h-1zM37,2h1v1h-1zM1,3h1v1h-1zM3,3h1v1h-1zM4,3h1v1h-1zM5,3h1v1h-1zM7,3h1v1h-1zM11,3h1v1h-1zM13,3h1v1h-1zM18,3h1v1h-1zM19,3h1v1h-1zM20,3h1v1h-1zM21,3h1v1h-1zM22,3h1v1h-1zM24,3h1v1h-1zM25,3h1v1h-1zM27,3h1v1h-1zM31,3h1v1h-1zM33,3h1v1h-1zM34,3h1v1h-1zM35,3h1v1h-1zM37,3h1v1h-1zM1,4h1v1h-1zM3,4h1v1h-1zM4,4h1v1h-1zM5,4h1v1h-1zM7,4h1v1h-1zM13,4h1v1h-1zM14,4h1v1h-1zM17,4h1v1h-1zM19,4h1v1h-1zM23,4h1v1h-1zM25,4h1v1h-1zM31,4h1v1h-1zM33,4h1v1h-1zM34,4h1v1h-1zM35,4h1v1h-1zM37,4h1v1h-1zM1,5h1v1h-1zM3,5h1v1h-1zM4,5h1v1h-1zM5,5h1v1h-1zM7,5h1v1h-1zM10,5h1v1h-1zM12,5h1v1h-1zM15,5h1v1h-1zM17,5h1v1h-1zM18,5h1v1h-1zM21,5h1v1h-1zM22,5h1v1h-1zM24,5h1v1h-1zM29,5h1v1h-1zM31,5h1v1h-1zM33,5h1v1h-1zM34,5h1v1h-1zM35,5h1v1h-1zM37,5h1v1h-1zM1,6h1v1h-1zM7,6h1v1h-1zM11,6h1v1h-1zM13,6h1v1h-1zM14,6h1v1h-1zM15,6h1v1h-1zM17,6h1v1h-1zM19,6h1v1h-1zM21,6h1v1h-1zM24,6h1v1h-1zM26,6h1v1h-1zM27,6h1v1h-1zM28,6h1v1h-1zM31,6h1v1h-1zM37,6h1v1h-1zM1,7h1v1h-1zM2,7h1v1h-1zM3,7h1v1h-1zM4,7h1v1h-1zM5,7h1v1h-1zM6,7h1v1h-1zM7,7h1v1h-1zM9,7h1v1h-1zM11,7h1v1h-1zM13,7h1v1h-1zM15,7h1v1h-1zM17,7h1v1h-1zM19,7h1v1h-1zM21,7h1v1h-1zM23,7h1v1h-1zM25,7h1v1h-1zM27,7h1v1h-1zM29,7h1v1h-1zM31,7h1v1h-1zM32,7h1v1h-1zM33,7h1v1h-1zM34,7h1v1h-1zM35,7h1v1h-1zM36,7h1v1h-1zM37,7h1v1h-1zM9,8h1v1h-1zM11,8h1v1h-1zM12,8h1v1h-1zM14,8h1v1h-1zM15,8h1v1h-1zM16,8h1v1h-1zM22,8h1v1h-1zM24,8h1v1h-1zM26,8h1v1h-1zM27,8h1v1h-1zM28,8h1v1h-1zM1,9h1v1h-1zM2,9h1v1h-1zM4,9h1v1h-1zM5,9h1v1h-1zM7,9h1v1h-1zM10,9h1v1h-1zM11,9h1v1h-1zM12,9h1v1h-1zM14,9h1v1h-1zM15,9h1v1h-1zM16,9h1v1h-1zM17,9h1v1h-1zM18,9h1v1h-1zM20,9h1v1h-1zM21,9h1v1h-1zM22,9h1v1h-1zM26,9h1v1h-1zM27,9h1v1h-1zM28,9h1v1h-1zM29,9h1v1h-1zM31,9h1v1h-1zM37,9h1v1h-1zM6,10h1v1h-1zM8,10h1v1h-1zM9,10h1v1h-1zM10,10h1v1h-1zM13,10h1v1h-1zM15,10h1v1h-1zM17,10h1v1h-1zM19,10h1v1h-1zM21,10h1v1h-1zM23,10h1v1h-1zM24,10h1v1h-1zM25,10h1v1h-1zM29,10h1v1h-1zM30,10h1v1h-1zM31,10h1v1h-1zM32,10h1v1h-1zM33,10h1v1h-1zM34,10h1v1h-1zM35,10h1v1h-1zM37,10h1v1h-1zM1,11h1v1h-1zM4,11h1v1h-1zM6,11h1v1h-1zM7,11h1v1h-1zM9,11h1v1h-1zM12,11h1v1h-1zM14,11h1v1h-1zM17,11h1v1h-1zM24,11h1v1h-1zM26,11h1v1h-1zM31,11h1v1h-1zM32,11h1v1h-1zM35,11h1v1h-1zM36,11h1v1h-1zM37,11h1v1h-1zM1,12h1v1h-1zM4,12h1v1h-1zM5,12h1v1h-1zM6,12h1v1h-1zM8,12h1v1h-1zM10,12h1v1h-1zM11,12h1v1h-1zM12,12h1v1h-1zM13,12h1v1h-1zM16,12h1v1h-1zM17,12h1v1h-1zM19,12h1v1h-1zM20,12h1v1h-1zM22,12h1v1h-1zM28,12h1v1h-1zM30,12h1v1h-1zM32,12h1v1h-1zM35,12h1v1h-1zM1,13h1v1h-1zM3,13h1v1h-1zM5,13h1v1h-1zM6,13h1v1h-1zM7,13h1v1h-1zM12,13h1v1h-1zM13,13h1v1h-1zM14,13h1v1h-1zM16,13h1v1h-1zM18,13h1v1h-1zM20,13h1v1h-1zM22,13h1v1h-1zM23,13h1v1h-1zM24,13h1v1h-1zM26,13h1v1h-1zM27,13h1v1h-1zM28,13h1v1h-1zM30,13h1v1h-1zM31,13h1v1h-1zM32,13h1v1h-1zM33,13h1v1h-1zM37,13h1v1h-1zM1,14h1v1h-1zM3,14h1v1h-1zM4,14h1v1h-1zM5,14h1v1h-1zM8,14h1v1h-1zM9,14h1v1h-1zM14,14h1v1h-1zM17,14h1v1h-1zM19,14h1v1h-1zM21,14h1v1h-1zM25,14h1v1h-1zM26,14h1v1h-1zM28,14h1v1h-1zM33,14h1v1h-1zM37,14h1v1h-1zM1,15h1v1h-1zM2,15h1v1h-1zM3,15h1v1h-1zM6,15h1v1h-1zM7,15h1v1h-1zM9,15h1v1h-1zM10,15h1v1h-1zM12,15h1v1h-1zM13,15h1v1h-1zM15,15h1v1h-1zM17,15h1v1h-1zM20,15h1v1h-1zM24,15h1v1h-1zM25,15h1v1h-1zM27,15h1v1h-1zM28,15h1v1h-1zM29,15h1v1h-1zM30,15h1v1h-1zM31,15h1v1h-1zM33,15h1v1h-1zM36,15h1v1h-1zM37,15h1v1h-1zM1,16h1v1h-1zM6,16h1v1h-1zM8,16h1v1h-1zM9,16h1v1h-1zM10,16h1v1h-1zM11,16h1v1h-1zM12,16h1v1h-1zM14,16h1v1h-1zM16,16h1v1h-1zM19,16h1v1h-1zM20,16h1v1h-1zM24,16h1v1h-1zM27,16h1v1h-1zM28,16h1v1h-1zM32,16h1v1h-1zM33,16h1v1h-1zM36,16h1v1h-1zM1,17h1v1h-1zM4,17h1v1h-1zM7,17h1v1h-1zM8,17h1v1h-1zM15,17h1v1h-1zM16,17h1v1h-1zM17,17h1v1h-1zM19,17h1v1h-1zM21,17h1v1h-1zM23,17h1v1h-1zM24,17h1v1h-1zM25,17h1v1h-1zM27,17h1v1h-1zM28,17h1v1h-1zM31,17h1v1h-1zM32,17h1v1h-1zM33,17h1v1h-1zM34,17h1v1h-1zM35,17h1v1h-1zM37,17h1v1h-1zM2,18h1v1h-1zM3,18h1v1h-1zM4,18h1v1h-1zM8,18h1v1h-1zM9,18h1v1h-1zM10,18h1v1h-1zM11,18h1v1h-1zM12,18h1v1h-1zM13,18h1v1h-1zM17,18h1v1h-1zM18,18h1v1h-1zM19,18h1v1h-1zM21,18h1v1h-1zM24,18h1v1h-1zM27,18h1v1h-1zM31,18h1v1h-1zM32,18h1v1h-1zM35,18h1v1h-1zM36,18h1v1h-1zM37,18h1v1h-1zM1,19h1v1h-1zM2,19h1v1h-1zM5,19h1v1h-1zM7,19h1v1h-1zM11,19h1v1h-1zM12,19h1v1h-1zM15,19h1v1h-1zM16,19h1v1h-1zM21,19h1v1h-1zM23,19h1v1h-1zM25,19h1v1h-1zM28,19h1v1h-1zM30,19h1v1h-1zM31,19h1v1h-1zM34,19h1v1h-1zM37,19h1v1h-1zM2,20h1v1h-1zM5,20h1v1h-1zM9,20h1v1h-1zM11,20h1v1h-1zM13,20h1v1h-1zM16,20h1v1h-1zM17,20h1v1h-1zM23,20h1v1h-1zM24,20h1v1h-1zM26,20h1v1h-1zM27,20h1v1h-1zM28,20h1v1h-1zM29,20h1v1h-1zM33,20h1v1h-1zM34,20h1v1h-1zM35,20h1v1h-1zM36,20h1v1h-1zM4,21h1v1h-1zM5,21h1v1h-1zM6,21h1v1h-1zM7,21h1v1h-1zM8,21h1v1h-1zM9,21h1v1h-1zM11,21h1v1h-1zM13,21h1v1h-1zM14,21h1v1h-1zM15,21h1v1h-1zM16,21h1v1h-1zM18,21h1v1h-1zM20,21h1v1h-1zM21,21h1v1h-1zM25,21h1v1h-1zM26,21h1v1h-1zM28,21h1v1h-1zM30,21h1v1h-1zM33,21h1v1h-1zM36,21h1v1h-1zM37,21h1v1h-1zM1,22h1v1h-1zM3,22h1v1h-1zM4,22h1v1h-1zM8,22h1v1h-1zM16,22h1v1h-1zM19,22h1v1h-1zM20,22h1v1h-1zM21,22h1v1h-1zM23,22h1v1h-1zM24,22h1v1h-1zM29,22h1v1h-1zM32,22h1v1h-1zM35,22h1v1h-1zM37,22h1v1h-1zM1,23h1v1h-1zM2,23h1v1h-1zM5,23h1v1h-1zM6,23h1v1h-1zM7,23h1v1h-1zM8,23h1v1h-1zM9,23h1v1h-1zM13,23h1v1h-1zM14,23h1v1h-1zM15,23h1v1h-1zM16,23h1v1h-1zM17,23h1v1h-1zM20,23h1v1h-1zM21,23h1v1h-1zM22,23h1v1h-1zM23,23h1v1h-1zM24,23h1v1h-1zM25,23h1v1h-1zM28,23h1v1h-1zM31,23h1v1h-1zM34,23h1v1h-1zM35,23h1v1h-1zM36,23h1v1h-1zM1,24h1v1h-1zM2,24h1v1h-1zM3,24h1v1h-1zM4,24h1v1h-1zM6,24h1v1h-1zM10,24h1v1h-1zM15,24h1v1h-1zM16,24h1v1h-1zM20,24h1v1h-1zM21,24h1v1h-1zM25,24h1v1h-1zM26,24h1v1h-1zM28,24h1v1h-1zM30,24h1v1h-1zM32,24h1v1h-1zM34,24h1v1h-1zM36,24h1v1h-1zM1,25h1v1h-1zM2,25h1v1h-1zM4,25h1v1h-1zM5,25h1v1h-1zM7,25h1v1h-1zM9,25h1v1h-1zM14,25h1v1h-1zM15,25h1v1h-1zM16,25h1v1h-1zM18,25h1v1h-1zM19,25h1v1h-1zM20,25h1v1h-1zM21,25h1v1h-1zM22,25h1v1h-1zM23,25h1v1h-1zM24,25h1v1h-1zM27,25h1v1h-1zM28,25h1v1h-1zM30,25h1v1h-1zM31,25h1v1h-1zM33,25h1v1h-1zM37,25h1v1h-1zM1,26h1v1h-1zM3,26h1v1h-1zM5,26h1v1h-1zM6,26h1v1h-1zM13,26h1v1h-1zM14,26h1v1h-1zM16,26h1v1h-1zM17,26h1v1h-1zM19,26h1v1h-1zM26,26h1v1h-1zM27,26h1v1h-1zM28,26h1v1h-1zM29,26h1v1h-1zM30,26h1v1h-1zM32,26h1v1h-1zM34,26h1v1h-1zM37,26h1v1h-1zM1,27h1v1h-1zM2,27h1v1h-1zM4,27h1v1h-1zM7,27h1v1h-1zM8,27h1v1h-1zM9,27h1v1h-1zM17,27h1v1h-1zM20,27h1v1h-1zM21,27h1v1h-1zM22,27h1v1h-1zM25,27h1v1h-1zM27,27h1v1h-1zM28,27h1v1h-1zM30,27h1v1h-1zM31,27h1v1h-1zM33,27h1v1h-1zM36,27h1v1h-1zM1,28h1v1h-1zM4,28h1v1h-1zM6,28h1v1h-1zM9,28h1v1h-1zM10,28h1v1h-1zM13,28h1v1h-1zM18,28h1v1h-1zM22,28h1v1h-1zM23,28h1v1h-1zM27,28h1v1h-1zM28,28h1v1h-1zM32,28h1v1h-1zM33,28h1v1h-1zM34,28h1v1h-1zM35,28h1v1h-1zM36,28h1v1h-1zM37,28h1v1h-1zM1,29h1v1h-1zM3,29h1v1h-1zM4,29h1v1h-1zM5,29h1v1h-1zM6,29h1v1h-1zM7,29h1v1h-1zM11,29h1v1h-1zM12,29h1v1h-1zM13,29h1v1h-1zM16,29h1v1h-1zM18,29h1v1h-1zM19,29h1v1h-1zM22,29h1v1h-1zM23,29h1v1h-1zM24,29h1v1h-1zM26,29h1v1h-1zM28,29h1v1h-1zM29,29h1v1h-1zM30,29h1v1h-1zM31,29h1v1h-1zM32,29h1v1h-1zM33,29h1v1h-1zM35,29h1v1h-1zM37,29h1v1h-1zM9,30h1v1h-1zM12,30h1v1h-1zM16,30h1v1h-1zM18,30h1v1h-1zM23,30h1v1h-1zM24,30h1v1h-1zM27,30h1v1h-1zM28,30h1v1h-1zM29,30h1v1h-1zM33,30h1v1h-1zM34,30h1v1h-1zM35,30h1v1h-1zM36,30h1v1h-1zM37,30h1v1h-1zM1,31h1v1h-1zM2,31h1v1h-1zM3,31h1v1h-1zM4,31h1v1h-1zM5,31h1v1h-1zM6,31h1v1h-1zM7,31h1v1h-1zM10,31h1v1h-1zM13,31h1v1h-1zM14,31h1v1h-1zM15,31h1v1h-1zM17,31h1v1h-1zM20,31h1v1h-1zM21,31h1v1h-1zM24,31h1v1h-1zM26,31h1v1h-1zM29,31h1v1h-1zM31,31h1v1h-1zM33,31h1v1h-1zM37,31h1v1h-1zM1,32h1v1h-1zM7,32h1v1h-1zM12,32h1v1h-1zM14,32h1v1h-1zM15,32h1v1h-1zM16,32h1v1h-1zM17,32h1v1h-1zM18,32h1v1h-1zM19,32h1v1h-1zM22,32h1v1h-1zM26,32h1v1h-1zM28,32h1v1h-1zM29,32h1v1h-1zM33,32h1v1h-1zM34,32h1v1h-1zM1,33h1v1h-1zM3,33h1v1h-1zM4,33h1v1h-1zM5,33h1v1h-1zM7,33h1v1h-1zM9,33h1v1h-1zM10,33h1v1h-1zM11,33h1v1h-1zM12,33h1v1h-1zM14,33h1v1h-1zM16,33h1v1h-1zM20,33h1v1h-1zM22,33h1v1h-1zM23,33h1v1h-1zM25,33h1v1h-1zM27,33h1v1h-1zM29,33h1v1h-1zM30,33h1v1h-1zM31,33h1v1h-1zM32,33h1v1h-1zM33,33h1v1h-1zM1,34h1v1h-1zM3,34h1v1h-1zM4,34h1v1h-1zM5,34h1v1h-1zM7,34h1v1h-1zM9,34h1v1h-1zM10,34h1v1h-1zM13,34h1v1h-1zM14,34h1v1h-1zM15,34h1v1h-1zM16,34h1v1h-1zM20,34h1v1h-1zM21,34h1v1h-1zM23,34h1v1h-1zM30,34h1v1h-1zM34,34h1v1h-1zM35,34h1v1h-1zM36,34h1v1h-1zM37,34h1v1h-1zM1,35h1v1h-1zM3,35h1v1h-1zM4,35h1v1h-1zM5,35h1v1h-1zM7,35h1v1h-1zM12,35h1v1h-1zM14,35h1v1h-1zM17,35h1v1h-1zM22,35h1v1h-1zM23,35h1v1h-1zM24,35h1v1h-1zM26,35h1v1h-1zM27,35h1v1h-1zM28,35h1v1h-1zM32,35h1v1h-1zM35,35h1v1h-1zM36,35h1v1h-1zM37,35h1v1h-1zM1,36h1v1h-1zM7,36h1v1h-1zM9,36h1v1h-1zM12,36h1v1h-1zM13,36h1v1h-1zM14,36h1v1h-1zM18,36h1v1h-1zM20,36h1v1h-1zM22,36h1v1h-1zM23,36h1v1h-1zM24,36h1v1h-1zM27,36h1v1h-1zM28,36h1v1h-1zM29,36h1v1h-1zM31,36h1v1h-1zM33,36h1v1h-1zM34,36h1v1h-1zM35,36h1v1h-1zM1,37h1v1h-1zM2,37h1v1h-1zM3,37h1v1h-1zM4,37h1v1h-1zM5,37h1v1h-1zM6,37h1v1h-1zM7,37h1v1h-1zM9,37h1v1h-1zM12,37h1v1h-1zM13,37h1v1h-1zM14,37h1v1h-1zM16,37h1v1h-1zM17,37h1v1h-1zM19,37h1v1h-1zM20,37h1v1h-1zM21,37h1v1h-1zM23,37h1v1h-1zM24,37h1v1h-1zM26,37h1v1h-1zM27,37h1v1h-1zM30,37h1v1h-1zM32,37h1v1h-1zM33,37h1v1h-1zM37,37h1v1h-1z"/>
</svg>