<?xml version="1.0" encoding="UTF-8"?>
<svg xmlns="http://www.w3.org/2000/svg" version="1.1" viewBox="0 0 39 39" stroke="none">
<path d="M1,1h1v1h-1zM2,1h1v1h-1zM3,1h1v1h-1zM4,1h1v1h-1zM5,1h1v1h-1zM6,1h1v1h-1zM7,1h1v1h-1zM11,1h1v1h-1zM13,1h1v1h-1zM14,1h1v1h-1zM15,1h1v1h-1zM16,1h1v1h-1zM19,1h1v1h-1zM20,1h1v1h-1zM21,1h1v1h-1zM22,1h1v1h-1zM23,1h1v1h-1zM28,1h1v1h-1zM29,1h1v1h-1zM31,1h1v1h-1zM32,1h1v1h-1zM33,1h1v1h-1zM34,1h1v1h-1zM35,1h1v1h-1zM36,1h1v1h-1zM37,1h1v1h-1zM1,2h1v1h-1zM7,2h1v1h-1zM9,2h1v1h-1zM11,2h1v1h-1zM14,2h1v1h-1zM15,2h1v1h-1zM16,2h1v1h-1zM17,2h1v1h-1zM18,2h1v1h-1zM21,2h1v1h-1zM23,2h1v1h-1zM24,2h1v1h-1zM25,2h1v1h-1zM26,2h1v1h-1zM28,2h1v1h-1zM31,2h1v1h-1zM37,2h1v1h-1zM1,3h1v1h-1zM3,3h1v1h-1zM4,3h1v1h-1zM5,3h1v1h-1zM7,3h1v1h-1zM13,3h1v1h-1zM14,3h1v1h-1zM16,3h1v1h-1zM18,3h1v1h-1zM19,3h1v1h-1zM20,3h1v1h-1zM21,3h1v1h-1zM24,3h1v1h-1zM25,3h1v1h-1zM26,3h1v1h-1zM29,3h1v1h-1zM31,3h1v1h-1zM33,3h1v1h-1zM34,3h1v1h-1zM35,3h1v1h-1zM37,3h1v1h-1zM1,4h1v1h-1zM3,4h1v1h-1zM4,4h1v1h-1zM5,4h1v1h-1zM7,4h1v1h-1zM9,4h1v1h-1zM10,4h1v1h-1zM11,4h1v1h-1zM13,4h1v1h-1zM15,4h1v1h-1zM16,4h1v1h-1zM19,4h1v1h-1zM21,4h1v1h-1zM23,4h1v1h-1zM26,4h1v1h-1zM27,4h1v1h-1zM28,4h1v1h-1zM29,4h1v1h-1zM31,4h1v1h-1zM33,4h1v1h-1zM34,4h1v1h-1zM35,4h1v1h-1zM37,4h1v1h-1zM1,5h1v1h-1zM3,5h1v1h-1zM4,5h1v1h-1zM5,5h1v1h-1zM7,5h1v1h-1zM10,5h1v1h-1zM16,5h1v1h-1zM17,5h1v1h-1zM20,5h1v1h-1zM21,5h1v1h-1zM22,5h1v1h-1zM24,5h1v1h-1zM25,5h1v1h-1zM27,5h1v1h-1zM29,5h1v1h-1zM31,5h1v1h-1zM33,5h1v1h-1zM34,5h1v1h-1zM35,5h1v1h-1zM37,5h1v1h-1zM1,6h1v1h-1zM7,6h1v1h-1zM9,6h1v1h-1zM10,6h1v1h-1zM12,6h1v1h-1zM13,6h1v1h-1zM18,6h1v1h-1zM20,6h1v1h-1zM24,6h1v1h-1zM25,6h1v1h-1zM26,6h1v1h-1zM31,6h1v1h-1zM37,6h1v1h-1zM1,7h1v1h-1zM2,7h1v1h-1zM3,7h1v1h-1zM4,7h1v1h-1zM5,7h1v1h-1zM6,7h1v1h-1zM7,7h1v1h-1zM9,7h1v1h-1zM11,7h1v1h-1zM13,7h1v1h-1zM15,7h1v1h-1zM17,7h1v1h-1zM19,7h1v1h-1zM21,7h1v1h-1zM23,7h1v1h-1zM25,7h1v1h-1zM27,7h1v1h-1zM29,7h1v1h-1zM31,7h1v1h-1zM32,7h1v1h-1zM33,7h1v1h-1zM34,7h1v1h-1zM35,7h1v1h-1zM36,7h1v1h-1zM37,7h1v1h-1zM10,8h1v1h-1zM11,8h1v1h-1zM12,8h1v1h-1zM15,8h1v1h-1zM17,8h1v1h-1zM19,8h1v1h-1zM20,8h1v1h-1zM22,8h1v1h-1zM23,8h1v1h-1zM24,8h1v1h-1zM27,8h1v1h-1zM1,9h1v1h-1zM2,9h1v1h-1zM3,9h1v1h-1zM4,9h1v1h-1zM5,9h1v1h-1zM7,9h1v1h-1zM8,9h1v1h-1zM9,9h1v1h-1zM10,9h1v1h-1zM12,9h1v1h-1zM21,9h1v1h-1zM25,9h1v1h-1zM28,9h1v1h-1zM29,9h1v1h-1zM30,9h1v1h-1zM32,9h1v1h-1zM34,9h1v1h-1zM36,9h1v1h-1zM1,10h1v1h-1zM8,10h1v1h-1zM9,10h1v1h-1zM10,10h1v1h-1zM11,10h1v1h-1zM13,10h1v1h-1zM14,10h1v1h-1zM15,10h1v1h-1zM16,10h1v1h-1zM21,10h1v1h-1zM22,10h1v1h-1zM24,10h1v1h-1zM27,10h1v1h-1zM28,10h1v1h-1zM29,10h1v1h-1zM30,10h1v1h-1zM32,10h1v1h-1zM33,10h1v1h-1zM37,10h1v1h-1zM2,11h1v1h-1zM4,11h1v1h-1zM5,11h1v1h-1zM7,11h1v1h-1zM10,11h1v1h-1zM11,11h1v1h-1zM14,11h1v1h-1zM15,11h1v1h-1zM16,11h1v1h-1zM18,11h1v1h-1zM21,11h1v1h-1zM22,11h1v1h-1zM23,11h1v1h-1zM24,11h1v1h-1zM25,11h1v1h-1zM27,11h1v1h-1zM28,11h1v1h-1zM30,11h1v1h-1zM31,11h1v1h-1zM33,11h1v1h-1zM35,11h1v1h-1zM37,11h1v1h-1zM3,12h1v1h-1zM8,12h1v1h-1zM9,12h1v1h-1zM10,12h1v1h-1zM13,12h1v1h-1zM14,12h1v1h-1zM16,12h1v1h-1zM20,12h1v1h-1zM21,12h1v1h-1zM23,12h1v1h-1zM26,12h1v1h-1zM29,12h1v1h-1zM32,12h1v1h-1zM34,12h1v1h-1zM36,12h1v1h-1zM2,13h1v1h-1zM3,13h1v1h-1zM7,13h1v1h-1zM8,13h1v1h-1zM9,13h1v1h-1zM11,13h1v1h-1zM13,13h1v1h-1zM15,13h1v1h-1zM16,13h1v1h-1zM17,13h1v1h-1zM18,13h1v1h-1zM22,13h1v1h-1zM28,13h1v1h-1zM30,13h1v1h-1zM31,13h1v1h-1zM32,13h1v1h-1zM33,13h1v1h-1zM35,13h1v1h-1zM36,13h1v1h-1zM37,13h1v1h-1zM1,14h1v1h-1zM2,14h1v1h-1zM6,14h1v1h-1zM8,14h1v1h-1zM10,14h1v1h-1zM11,14h1v1h-1zM17,14h1v1h-1zM20,14h1v1h-1zM21,14h1v1h-1zM22,14h1v1h-1zM23,14h1v1h-1zM25,14h1v1h-1zM27,14h1v1h-1zM28,14h1v1h-1zM29,14h1v1h-1zM30,14h1v1h-1zM32,14h1v1h-1zM33,14h1v1h-1zM34,14h1v1h-1zM37,14h1v1h-1zM1,15h1v1h-1zM2,15h1v1h-1zM3,15h1v1h-1zM4,15h1v1h-1zM5,15h1v1h-1zM7,15h1v1h-1zM10,15h1v1h-1zM12,15h1v1h-1zM13,15h1v1h-1zM16,15h1v1h-1zM18,15h1v1h-1zM19,15h1v1h-1zM22,15h1v1h-1zM23,15h1v1h-1zM26,15h1v1h-1zM30,15h1v1h-1zM31,15h1v1h-1zM33,15h1v1h-1zM35,15h1v1h-1zM36,15h1v1h-1zM37,15h1v1h-1zM2,16h1v1h-1zM3,16h1v1h-1zM4,16h1v1h-1zM8,16h1v1h-1zM9,16h1v1h-1zM12,16h1v1h-1zM15,16h1v1h-1zM17,16h1v1h-1zM18,16h1v1h-1zM20,16h1v1h-1zM21,16h1v1h-1zM22,16h1v1h-1zM27,16h1v1h-1zM29,16h1v1h-1zM32,16h1v1h-1zM34,16h1v1h-1zM35,16h1v1h-1zM36,16h1v1h-1zM1,17h1v1h-1zM3,17h1v1h-1zM4,17h1v1h-1zM5,17h1v1h-1zM7,17h1v1h-1zM9,17h1v1h-1zM10,17h1v1h-1zM11,17h1v1h-1zM12,17h1v1h-1zM16,17h1v1h-1zM18,17h1v1h-1zM23,17h1v1h-1zM28,17h1v1h-1zM29,17h1v1h-1zM30,17h1v1h-1zM32,17h1v1h-1zM33,17h1v1h-1zM34,17h1v1h-1zM35,17h1v1h-1zM36,17h1v1h-1zM37,17h1v1h-1zM8,18h1v1h-1zM10,18h1v1h-1zM13,18h1v1h-1zM14,18h1v1h-1zM15,18h1v1h-1zM17,18h1v1h-1zM20,18h1v1h-1zM21,18h1v1h-1zM22,18h1v1h-1zM23,18h1v1h-1zM24,18h1v1h-1zM25,18h1v1h-1zM28,18h1v1h-1zM31,18h1v1h-1zM32,18h1v1h-1zM34,18h1v1h-1zM37,18h1v1h-1zM1,19h1v1h-1zM3,19h1v1h-1zM6,19h1v1h-1zM7,19h1v1h-1zM8,19h1v1h-1zM9,19h1v1h-1zM14,19h1v1h-1zM15,19h1v1h-1zM18,19h1v1h-1zM21,19h1v1h-1zM23,19h1v1h-1zM24,19h1v1h-1zM25,19h1v1h-1zM27,19h1v1h-1zM30,19h1v1h-1zM31,19h1v1h-1zM33,19h1v1h-1zM34,19h1v1h-1zM35,19h1v1h-1zM36,19h1v1h-1zM37,19h1v1h-1zM1,20h1v1h-1zM3,20h1v1h-1zM4,20h1v1h-1zM5,20h1v1h-1zM6,20h1v1h-1zM8,20h1v1h-1zM10,20h1v1h-1zM11,20h1v1h-1zM13,20h1v1h-1zM14,20h1v1h-1zM17,20h1v1h-1zM20,20h1v1h-1zM22,20h1v1h-1zM24,20h1v1h-1zM27,20h1v1h-1zM29,20h1v1h-1zM32,20h1v1h-1zM35,20h1v1h-1zM36,20h1v1h-1zM1,21h1v1h-1zM3,21h1v1h-1zM6,21h1v1h-1zM7,21h1v1h-1zM13,21h1v1h-1zM15,21h1v1h-1zM16,21h1v1h-1zM17,21h1v1h-1zM22,21h1v1h-1zM23,21h1v1h-1zM27,21h1v1h-1zM28,21h1v1h-1zM30,21h1v1h-1zM31,21h1v1h-1zM33,21h1v1h-1zM35,21h1v1h-1zM36,21h1v1h-1zM37,21h1v1h-1zM1,22h1v1h-1zM4,22h1v1h-1zM10,22h1v1h-1zM11,22h1v1h-1zM16,22h1v1h-1zM22,22h1v1h-1zM23,22h1v1h-1zM24,22h1v1h-1zM25,22h1v1h-1zM29,22h1v1h-1zM30,22h1v1h-1zM31,22h1v1h-1zM32,22h1v1h-1zM33,22h1v1h-1zM34,22h1v1h-1zM37,22h1v1h-1zM1,23h1v1h-1zM3,23h1v1h-1zM6,23h1v1h-1zM7,23h1v1h-1zM8,23h1v1h-1zM11,23h1v1h-1zM12,23h1v1h-1zM13,23h1v1h-1zM18,23h1v1h-1zM20,23h1v1h-1zM21,23h1v1h-1zM22,23h1v1h-1zM23,23h1v1h-1zM27,23h1v1h-1zM28,23h1v1h-1zM31,23h1v1h-1zM33,23h1v1h-1zM34,23h1v1h-1zM35,23h1v1h-1zM3,24h1v1h-1zM5,24h1v1h-1zM9,24h1v1h-1zM10,24h1v1h-1zM12,24h1v1h-1zM15,24h1v1h-1zM17,24h1v1h-1zM20,24h1v1h-1zM26,24h1v1h-1zM29,24h1v1h-1zM35,24h1v1h-1zM3,25h1v1h-1zM5,25h1v1h-1zM6,25h1v1h-1zM7,25h1v1h-1zM12,25h1v1h-1zM16,25h1v1h-1zM18,25h1v1h-1zM19,25h1v1h-1zM22,25h1v1h-1zM23,25h1v1h-1zM25,25h1v1h-1zM27,25h1v1h-1zM28,25h1v1h-1zM29,25h1v1h-1zM30,25h1v1h-1zM32,25h1v1h-1zM35,25h1v1h-1zM36,25h1v1h-1zM37,25h1v1h-1zM1,26h1v1h-1zM3,26h1v1h-1zM4,26h1v1h-1zM5,26h1v1h-1zM9,26h1v1h-1zM10,26h1v1h-1zM13,26h1v1h-1zM14,26h1v1h-1zM15,26h1v1h-1zM22,26h1v1h-1zM25,26h1v1h-1zM29,26h1v1h-1zM32,26h1v1h-1zM1,27h1v1h-1zM3,27h1v1h-1zM4,27h1v1h-1zM5,27h1v1h-1zM6,27h1v1h-1zM7,27h1v1h-1zM8,27h1v1h-1zM11,27h1v1h-1zM14,27h1v1h-1zM15,27h1v1h-1zM16,27h1v1h-1zM17,27h1v1h-1zM18,27h1v1h-1zM21,27h1v1h-1zM27,27h1v1h-1zM30,27h1v1h-1zM31,27h1v1h-1zM33,27h1v1h-1zM34,27h1v1h-1zM35,27h1v1h-1zM37,27h1v1h-1zM1,28h1v1h-1zM3,28h1v1h-1zM5,28h1v1h-1zM6,28h1v1h-1zM11,28h1v1h-1zM13,28h1v1h-1zM14,28h1v1h-1zM17,28h1v1h-1zM21,28h1v1h-1zM23,28h1v1h-1zM24,28h1v1h-1zM25,28h1v1h-1zM26,28h1v1h-1zM32,28h1v1h-1zM36,28h1v1h-1zM37,28h1v1h-1zM1,29h1v1h-1zM4,29h1v1h-1zM5,29h1v1h-1zM6,29h1v1h-1zM7,29h1v1h-1zM8,29h1v1h-1zM10,29h1v1h-1zM11,29h1v1h-1zM13,29h1v1h-1zM15,29h1v1h-1zM16,29h1v1h-1zM17,29h1v1h-1zM19,29h1v1h-1zM22,29h1v1h-1zM26,29h1v1h-1zM28,29h1v1h-1zM29,29h1v1h-1zM30,29h1v1h-1zM31,29h1v1h-1zM32,29h1v1h-1zM33,29h1v1h-1zM34,29h1v1h-1zM36,29h1v1h-1zM37,29h1v1h-1zM9,30h1v1h-1zM10,30h1v1h-1zM11,30h1v1h-1zM16,30h1v1h-1zM19,30h1v1h-1zM21,30h1v1h-1zM22,30h1v1h-1zM23,30h1v1h-1zM25,30h1v1h-1zM29,30h1v1h-1zM33,30h1v1h-1zM37,30h1v1h-1zM1,31h1v1h-1zM2,31h1v1h-1zM3,31h1v1h-1zM4,31h1v1h-1zM5,31h1v1h-1zM6,31h1v1h-1zM7,31h1v1h-1zM9,31h1v1h-1zM10,31h1v1h-1zM11,31h1v1h-1zM12,31h1v1h-1zM13,31h1v1h-1zM16,31h1v1h-1zM18,31h1v1h-1zM19,31h1v1h-1zM23,31h1v1h-1zM26,31h1v1h-1zM28,31h1v1h-1zM29,31h1v1h-1zM31,31h1v1h-1zM33,31h1v1h-1zM35,31h1v1h-1zM36,31h1v1h-1zM37,31h1v1h-1zM1,32h1v1h-1zM7,32h1v1h-1zM11,32h1v1h-1zM12,32h1v1h-1zM15,32h1v1h-1zM17,32h1v1h-1zM18,32h1v1h-1zM20,32h1v1h-1zM21,32h1v1h-1zM22,32h1v1h-1zM24,32h1v1h-1zM26,32h1v1h-1zM29,32h1v1h-1zM33,32h1v1h-1zM34,32h1v1h-1zM1,33h1v1h-1zM3,33h1v1h-1zM4,33h1v1h-1zM5,33h1v1h-1zM7,33h1v1h-1zM9,33h1v1h-1zM11,33h1v1h-1zM12,33h1v1h-1zM16,33h1v1h-1zM21,33h1v1h-1zM22,33h1v1h-1zM23,33h1v1h-1zM27,33h1v1h-1zM29,33h1v1h-1zM30,33h1v1h-1zM31,33h1v1h-1zM32,33h1v1h-1zM33,33h1v1h-1zM34,33h1v1h-1zM35,33h1v1h-1zM1,34h1v1h-1zM3,34h1v1h-1zM4,34h1v1h-1zM5,34h1v1h-1zM7,34h1v1h-1zM9,34h1v1h-1zM10,34h1v1h-1zM13,34h1v1h-1zM14,34h1v1h-1zM15,34h1v1h-1zM16,34h1v1h-1zM20,34h1v1h-1zM22,34h1v1h-1zM25,34h1v1h-1zM27,34h1v1h-1zM28,34h1v1h-1zM29,34h1v1h-1zM31,34h1v1h-1zM33,34h1v1h-1zM36,34h1v1h-1zM37,34h1v1h-1zM1,35h1v1h-1zM3,35h1v1h-1zM4,35h1v1h-1zM5,35h1v1h-1zM7,35h1v1h-1zM9,35h1v1h-1zM11,35h1v1h-1zM14,35h1v1h-1zM15,35h1v1h-1zM18,35h1v1h-1zM20,35h1v1h-1zM22,35h1v1h-1zM23,35h1v1h-1zM26,35h1v1h-1zM30,35h1v1h-1zM32,35h1v1h-1zM34,35h1v1h-1zM35,35h1v1h-1zM37,35h1v1h-1zM1,36h1v1h-1zM7,36h1v1h-1zM9,36h1v1h-1zM11,36h1v1h-1zM13,36h1v1h-1zM14,36h1v1h-1zM17,36h1v1h-1zM21,36h1v1h-1zM22,36h1v1h-1zM23,36h1v1h-1zM24,36h1v1h-1zM27,36h1v1h-1zM29,36h1v1h-1zM30,36h1v1h-1zM31,36h1v1h-1zM32,36h1v1h-1zM33,36h1v1h-1zM34,36h1v1h-1zM35,36h1v1h-1zM36,36h1v1h-1zM1,37h1v1h-1zM2,37h1v1h-1zM3,37h1v1h-1zM4,37h1v1h-1zM5,37h1v1h-1zM6,37h1v1h-1zM7,37h1v1h-1zM9,37h1v1h-1zM10,37h1v1h-1zM11,37h1v1h-1zM13,37h1v1h-1zM15,37h1v1h-1zM16,37h1v1h-1zM17,37h1v1h-1zM18,37h1v1h-1zM19,37h1v1h-1zM25,37h1v1h-1zM26,37h1v1h-1zM27,37h1v1h-1zM29,37h1v1h-1zM32,37h1v1h-1zM36,37h1v1h-1zM37,37h1v1h-1z"/>
</svg>